<?xml version="1.0" encoding="UTF-8"?>
<svg width="194px" height="44px" viewBox="0 0 194 44" version="1.1" xmlns="http://www.w3.org/2000/svg" xmlns:xlink="http://www.w3.org/1999/xlink">
    <!-- Generator: Sketch 64 (93537) - https://sketch.com -->
    <title>logo/m-tek-logo-darker</title>
    <desc>Created with Sketch.</desc>
    <defs>
        <polygon id="path-1" points="0.4241 0.1325 28.606 0.1325 28.606 21.6005 0.4241 21.6005"></polygon>
        <polygon id="path-3" points="0 0.337 57.11681 0.337 57.11681 41.9997964 0 41.9997964"></polygon>
    </defs>
    <g id="logo/m-tek-logo-darker" stroke="none" stroke-width="1" fill="none" fill-rule="evenodd">
        <g id="Group-21">
            <polygon id="Fill-1" fill="#142A56" points="71.78 33.9869 71.781 18.8349 80.531 34.0599 85.343 34.0599 94.093 18.8349 94.093 34.1469 100.394 34.1469 100.394 12.8839 90.419 12.8839 82.893 26.4469 75.106 12.7969 65.306 12.7969 65.306 33.9869"></polygon>
            <g id="Group-20" transform="translate(0.000000, 0.663100)">
                <path d="M108.74,20.1314 C108.74,20.1314 104.821,20.1384 104.937,24.2724 C104.937,24.2724 104.983,27.5374 108.655,27.7364545 C108.655,27.7364545 112.35,27.7964 112.543,23.9344 C112.543,23.9344 112.706,20.1064 108.74,20.1314" id="Fill-2" fill="#142A56"></path>
                <polygon id="Fill-4" fill="#142A56" points="111.2117 11.9181 111.2117 17.2651 120.4177 17.2651 120.4177 33.3451 127.0107 33.3451 127.0107 17.3051 136.3377 17.3051 136.3377 11.8781"></polygon>
                <polygon id="Fill-6" fill="#142A56" points="139.1042 11.9166 139.1042 33.4246 162.9432 33.4246 162.9432 28.2786 145.5362 28.2786 145.5362 24.7416 161.6972 24.7416 161.6972 20.3186 145.5362 20.3186 145.5362 16.8216 162.5822 16.8216 162.5822 11.9166"></polygon>
                <g id="Group-10" transform="translate(165.000000, 12.000000)">
                    <mask id="mask-2" fill="white">
                        <use xlink:href="#path-1"></use>
                    </mask>
                    <g id="Clip-9"></g>
                    <polygon id="Fill-8" fill="#142A56" mask="url(#mask-2)" points="6.8171 0.2125 6.8171 8.1725 9.9531 8.1325 18.3541 0.1325 27.1591 0.1325 15.6611 10.5445 28.6061 21.6005 19.4001 21.6005 9.8721 13.3175 6.8971 13.3175 6.8971 21.5195 0.4241 21.5195 0.4241 0.2125"></polygon>
                </g>
                <g id="Group-13">
                    <mask id="mask-4" fill="white">
                        <use xlink:href="#path-3"></use>
                    </mask>
                    <g id="Clip-12"></g>
                    <path d="M28.9485,0.3629 C28.9485,0.3629 18.9025,-0.3841 8.9925,6.1329 C8.9925,6.1329 0.7115,10.6819 0.0315,20.5239 C-0.6465,30.3659 9.5355,40.4799 24.2645,41.7689 C38.9945,43.0589 44.8505,38.6669 49.2435,35.4569 C53.7645,32.1549 61.8695,22.2199 53.4525,11.1569 C45.0355,0.0919 28.9485,0.3629 28.9485,0.3629" id="Fill-11" fill="#142A56" mask="url(#mask-4)"></path>
                </g>
                <path d="M18.7029,8.8424 C18.7029,8.8424 15.5129,9.9284 14.6979,14.4764 L14.6979,33.4824 L22.6399,33.4824 L22.6399,14.2734 C22.6399,14.2734 21.9609,10.6754 18.7029,8.8424" id="Fill-14" fill="#FEFEFE"></path>
                <path d="M20.2644,8.232 C20.2644,8.232 24.0654,9.794 24.2694,14.273 L24.2694,33.415 L32.2104,33.415 L32.2104,13.662 C32.2104,13.662 30.5364,5.856 20.2644,8.232" id="Fill-16" fill="#FEFEFE"></path>
                <path d="M29.9709,8.0963 C29.9709,8.0963 33.5689,9.3863 34.0439,13.9343 L34.0439,33.4143 L41.9849,33.4143 L41.9849,13.6613 C41.9849,13.6613 39.8129,6.0593 29.9709,8.0963" id="Fill-18" fill="#FEFEFE"></path>
            </g>
        </g>
    </g>
</svg>