<?xml version="1.0" encoding="utf-8"?>
<!-- Generator: Adobe Illustrator 24.3.0, SVG Export Plug-In . SVG Version: 6.00 Build 0)  -->
<svg version="1.1" id="Layer_1" xmlns="http://www.w3.org/2000/svg" xmlns:xlink="http://www.w3.org/1999/xlink" x="0px" y="0px"
	 viewBox="0 0 217.7 44" style="enable-background:new 0 0 217.7 44;" xml:space="preserve">
<style type="text/css">
	.st0{fill-rule:evenodd;clip-rule:evenodd;fill:#142A56;}
	.st1{fill-rule:evenodd;clip-rule:evenodd;fill:#FEFEFE;}
</style>
<desc>Created with Sketch.</desc>
<g id="logo_x2F_m-tek-logo-darker">
	<g id="Group-21">
		<polygon id="Fill-1" class="st0" points="71.8,34 71.8,18.8 80.5,34.1 85.3,34.1 94.1,18.8 94.1,34.1 100.4,34.1 100.4,12.9 
			90.4,12.9 82.9,26.4 75.1,12.8 65.3,12.8 65.3,34 		"/>
		<path id="Fill-2" class="st0" d="M108.7,20.8c0,0-3.9,0-3.8,4.1c0,0,0,3.3,3.7,3.5c0,0,3.7,0.1,3.9-3.8
			C112.5,24.6,112.7,20.8,108.7,20.8"/>
		<polygon id="Fill-4" class="st0" points="111.2,12.6 111.2,18 120.4,18 120.4,34 127,34 127,18 136.3,18 136.3,12.6 		"/>
		<polygon id="Fill-4_2_" class="st0" points="165,12.6 165,18 174.2,18 174.2,34 180.8,34 180.8,18 190.1,18 190.1,12.6 		"/>
		<polygon id="Fill-4_3_" class="st0" points="192.4,12.6 192.4,18 201.6,18 201.6,34 208.2,34 208.2,18 217.5,18 217.5,12.6 		"/>
		<polygon id="Fill-6" class="st0" points="139.1,12.6 139.1,34.1 162.9,34.1 162.9,29 145.5,29 145.5,25.4 161.7,25.4 161.7,21 
			145.5,21 145.5,17.5 162.6,17.5 162.6,12.6 		"/>
		<path id="Fill-11" class="st0" d="M28.9,1.1c0,0-10-0.7-20,5.8c0,0-8.3,4.5-9,14.4c-0.7,9.8,9.5,20,24.2,21.2
			c14.7,1.3,20.6-3.1,25-6.3c4.5-3.3,12.6-13.2,4.2-24.3C45,0.8,28.9,1.1,28.9,1.1"/>
		<path id="Fill-14" class="st1" d="M18.7,9.5c0,0-3.2,1.1-4,5.6v19h7.9V15C22.6,15,22,11.4,18.7,9.5"/>
		<path id="Fill-16" class="st1" d="M20.3,8.9c0,0,3.8,1.6,4,6V34h7.9V14.4C32.2,14.4,30.5,6.6,20.3,8.9"/>
		<path id="Fill-18" class="st1" d="M30,8.8c0,0,3.6,1.3,4.1,5.8v19.5H42V14.4C42,14.4,39.8,6.8,30,8.8"/>
	</g>
</g>
</svg>
